<svg width="1528.080078125px" height="279.239990234375px" xmlns="http://www.w3.org/2000/svg" viewBox="-514.0400390625 -64.6199951171875 1528.080078125 279.239990234375" style="background: rgb(255, 255, 255);" preserveAspectRatio="xMidYMid"><filter id="editing-goldstamp"><feFlood flood-color="#544232" result="flood"></feFlood><feMorphology operator="dilate" radius="1" in="SourceGraphic" result="outline"></feMorphology><feComposite operator="in" in="flood" in2="outline" result="outline2"></feComposite><feGaussianBlur stdDeviation="4" in="SourceAlpha" result="blur"></feGaussianBlur><feSpecularLighting surfaceScale="2" specularConstant="0.7" specularExponent="10" lighting-color="#white" in="blur" result="specular"><fePointLight x="200" y="-1000" z="300"></fePointLight></feSpecularLighting><feComposite operator="in" in="specular" in2="SourceGraphic" result="specular2"></feComposite><feComposite in="SourceGraphic" in2="specular2" operator="arithmetic" k1="3" k2="2" k3="1" k4="0" result="specular3"></feComposite><feMerge><feMergeNode in="outline2"></feMergeNode><feMergeNode in="specular3"></feMergeNode></feMerge></filter><g filter="url(#editing-goldstamp)"><g transform="translate(-304.3999915122986, 114.52999877929688)"><path d="M41.17-25.11L34.46-13.43L46.14-13.43L44.24-10.15L32.56-10.15L26.28 0.73L23.65-0.80L29.05-10.15L17.37-10.15L11.10 0.73L8.47-0.80L13.87-10.15L2.19-10.15L4.09-13.43L15.77-13.43L22.48-25.11L10.80-25.11L12.70-28.40L24.38-28.40L30.81-39.49L33.43-37.96L27.89-28.40L39.57-28.40L45.99-39.49L48.62-37.96L43.07-28.40L54.75-28.40L52.85-25.11L41.17-25.11ZM37.59-25.11L25.91-25.11L19.20-13.43L30.88-13.43L37.59-25.11ZM71.61-17.74L67.23-17.74L62.78-51.46L62.78-53.73L72.71-57.38L75.48-57.38L71.61-17.74ZM70.15-11.31L70.15-11.31Q72.34-11.31 73.77-9.71L73.77-9.71L73.77-9.71Q75.19-8.10 75.19-5.69L75.19-5.69L75.19-5.69Q75.19-4.01 74.17-2.52L74.17-2.52L74.17-2.52Q73.15-1.02 71.61-0.15L71.61-0.15L71.61-0.15Q70.08 0.73 68.62 0.73L68.62 0.73L68.62 0.73Q66.43 0.73 65.01-0.88L65.01-0.88L65.01-0.88Q63.58-2.48 63.58-4.89L63.58-4.89L63.58-4.89Q63.58-6.57 64.60-8.07L64.60-8.07L64.60-8.07Q65.63-9.56 67.16-10.44L67.16-10.44L67.16-10.44Q68.69-11.31 70.15-11.31L70.15-11.31ZM106.87-68.11L87.60 10.22L83.88 9.49L103.08-68.84L106.87-68.11ZM156.80-2.92L155.34 0L141.47 0L141.47-7.59L132.20 0.15L132.20 0.15Q130.67 0.73 128.19 0.73L128.19 0.73L128.19 0.73Q123.22 0.73 120.30-2.30L120.30-2.30L120.30-2.30Q117.38-5.33 117.38-10.51L117.38-10.51L117.38-27.96L110.89-31.75L110.89-34.02L123.37-40.15L126.14-40.15L126.14-14.16L126.14-14.16Q126.14-10.15 127.38-8.54L127.38-8.54L127.38-8.54Q128.63-6.93 131.84-6.93L131.84-6.93L131.84-6.93Q134.10-6.93 136.29-7.77L136.29-7.77L136.29-7.77Q138.48-8.61 141.47-11.10L141.47-11.10L141.47-27.96L134.98-31.75L134.98-34.02L147.46-40.15L150.23-40.15L150.23-5.47L156.80-2.92ZM186.88-7.88L186.88-7.88Q186.88-9.93 184.62-11.64L184.62-11.64L184.62-11.64Q182.35-13.36 177.68-15.77L177.68-15.77L177.68-15.77Q173.89-17.74 171.55-19.20L171.55-19.20L171.55-19.20Q169.21-20.66 167.57-22.59L167.57-22.59L167.57-22.59Q165.93-24.53 165.93-26.79L165.93-26.79L165.93-26.79Q165.93-29.42 168.12-32.41L168.12-32.41L168.12-32.41Q170.31-35.41 173.52-37.45L173.52-37.45L173.52-37.45Q176.73-39.49 179.51-39.49L179.51-39.49L179.51-39.49Q182.86-39.49 187.28-38.65L187.28-38.65L187.28-38.65Q191.70-37.81 193.67-36.79L193.67-36.79L193.67-25.55L190.89-25.55L190.89-25.55Q188.56-30.08 185.49-32.59L185.49-32.59L185.49-32.59Q182.43-35.11 179.21-35.11L179.21-35.11L179.21-35.11Q176.95-35.11 175.56-33.91L175.56-33.91L175.56-33.91Q174.18-32.70 174.18-30.88L174.18-30.88L174.18-30.88Q174.18-28.62 176.55-26.83L176.55-26.83L176.55-26.83Q178.92-25.04 183.74-22.63L183.74-22.63L183.74-22.63Q187.46-20.73 189.73-19.34L189.73-19.34L189.73-19.34Q191.99-17.96 193.56-16.10L193.56-16.10L193.56-16.10Q195.13-14.23 195.13-11.97L195.13-11.97L195.13-11.97Q195.13-9.27 192.83-6.31L192.83-6.31L192.83-6.31Q190.53-3.36 187.21-1.31L187.21-1.31L187.21-1.31Q183.89 0.73 181.11 0.73L181.11 0.73L181.11 0.73Q177.54 0.73 172.61-0.11L172.61-0.11L172.61-0.11Q167.68-0.95 165.56-1.97L165.56-1.97L165.56-13.21L168.34-13.21L168.34-13.21Q170.89-8.69 174.40-6.17L174.40-6.17L174.40-6.17Q177.90-3.65 181.48-3.65L181.48-3.65L181.48-3.65Q183.89-3.65 185.38-4.89L185.38-4.89L185.38-4.89Q186.88-6.13 186.88-7.88L186.88-7.88ZM230.53-39.42L230.53-39.42Q232.94-39.42 234.77-38.11L234.77-38.11L234.77-38.11Q236.59-36.79 237.61-34.46L237.61-34.46L232.80-28.40L230.02-28.40L230.02-28.40Q229.73-30.22 228.96-30.99L228.96-30.99L228.96-30.99Q228.20-31.75 226.88-31.75L226.88-31.75L226.88-31.75Q225.28-31.75 223.49-30.92L223.49-30.92L223.49-30.92Q221.70-30.08 219.44-27.74L219.44-27.74L219.44-5.99L229.66-2.85L228.20 0.07L204.18 0.07L204.18-2.19L210.68-7.30L210.68-27.96L204.18-31.75L204.18-34.02L216.66-40.15L218.93-31.17L226.52-38.91L226.52-38.91Q228.05-39.49 230.53-39.49L230.53-39.49L230.53-39.42ZM262.51-68.11L243.24 10.22L239.51 9.49L258.71-68.84L262.51-68.11ZM291.49-7.88L291.49-7.88Q291.49-9.93 289.23-11.64L289.23-11.64L289.23-11.64Q286.96-13.36 282.29-15.77L282.29-15.77L282.29-15.77Q278.49-17.74 276.16-19.20L276.16-19.20L276.16-19.20Q273.82-20.66 272.18-22.59L272.18-22.59L272.18-22.59Q270.54-24.53 270.54-26.79L270.54-26.79L270.54-26.79Q270.54-29.42 272.73-32.41L272.73-32.41L272.73-32.41Q274.92-35.41 278.13-37.45L278.13-37.45L278.13-37.45Q281.34-39.49 284.12-39.49L284.12-39.49L284.12-39.49Q287.47-39.49 291.89-38.65L291.89-38.65L291.89-38.65Q296.31-37.81 298.28-36.79L298.28-36.79L298.28-25.55L295.50-25.55L295.50-25.55Q293.17-30.08 290.10-32.59L290.10-32.59L290.10-32.59Q287.04-35.11 283.82-35.11L283.82-35.11L283.82-35.11Q281.56-35.11 280.17-33.91L280.17-33.91L280.17-33.91Q278.79-32.70 278.79-30.88L278.79-30.88L278.79-30.88Q278.79-28.62 281.16-26.83L281.16-26.83L281.16-26.83Q283.53-25.04 288.35-22.63L288.35-22.63L288.35-22.63Q292.07-20.73 294.34-19.34L294.34-19.34L294.34-19.34Q296.60-17.96 298.17-16.10L298.17-16.10L298.17-16.10Q299.74-14.23 299.74-11.97L299.74-11.97L299.74-11.97Q299.74-9.27 297.44-6.31L297.44-6.31L297.44-6.31Q295.14-3.36 291.82-1.31L291.82-1.31L291.82-1.31Q288.50 0.73 285.72 0.73L285.72 0.73L285.72 0.73Q282.14 0.73 277.22-0.11L277.22-0.11L277.22-0.11Q272.29-0.95 270.17-1.97L270.17-1.97L270.17-13.21L272.95-13.21L272.95-13.21Q275.50-8.69 279.01-6.17L279.01-6.17L279.01-6.17Q282.51-3.65 286.09-3.65L286.09-3.65L286.09-3.65Q288.50-3.65 289.99-4.89L289.99-4.89L289.99-4.89Q291.49-6.13 291.49-7.88L291.49-7.88ZM337.26-39.49L337.26-39.49Q341.20-39.49 344.38-36.97L344.38-36.97L344.38-36.97Q347.55-34.46 349.34-30.15L349.34-30.15L349.34-30.15Q351.13-25.84 351.13-20.66L351.13-20.66L351.13-20.66Q351.13-15.04 347.70-10.11L347.70-10.11L347.70-10.11Q344.27-5.18 339.12-2.23L339.12-2.23L339.12-2.23Q333.97 0.73 329.16 0.73L329.16 0.73L329.16 0.73Q326.16 0.73 323.57-0.58L323.57-0.58L323.57-0.58Q320.98-1.90 319.01-4.31L319.01-4.31L315.87 0L313.10 0L313.10-52.27L306.60-56.79L306.60-59.06L319.08-63.73L321.86-63.73L321.86-31.17L331.64-38.91L331.64-38.91Q333.97-39.49 337.26-39.49L337.26-39.49ZM333.39-5.40L333.39-5.40Q341.64-5.40 341.64-17.15L341.64-17.15L341.64-17.15Q341.64-23.94 339.52-28.62L339.52-28.62L339.52-28.62Q337.41-33.29 333.54-33.29L333.54-33.29L333.54-33.29Q330.76-33.29 328.13-32.19L328.13-32.19L328.13-32.19Q325.51-31.10 321.86-27.89L321.86-27.89L321.86-14.82L321.86-14.82Q321.86-10.80 324.85-8.10L324.85-8.10L324.85-8.10Q327.84-5.40 333.39-5.40L333.39-5.40ZM382.08-2.92L380.62 0L360.25 0L360.25-2.26L366.75-7.37L366.75-28.69L360.25-33.21L360.25-35.48L372.74-40.15L375.51-40.15L375.51-5.47L382.08-2.92ZM370.84-62.05L370.84-62.05Q373.03-62.05 374.45-60.44L374.45-60.44L374.45-60.44Q375.88-58.84 375.88-56.43L375.88-56.43L375.88-56.43Q375.88-54.75 374.85-53.25L374.85-53.25L374.85-53.25Q373.83-51.76 372.30-50.88L372.30-50.88L372.30-50.88Q370.77-50.00 369.31-50.00L369.31-50.00L369.31-50.00Q367.12-50.00 365.69-51.61L365.69-51.61L365.69-51.61Q364.27-53.22 364.27-55.63L364.27-55.63L364.27-55.63Q364.27-57.30 365.29-58.80L365.29-58.80L365.29-58.80Q366.31-60.30 367.85-61.17L367.85-61.17L367.85-61.17Q369.38-62.05 370.84-62.05L370.84-62.05ZM435.30-2.85L433.84 0.07L419.97 0.07L419.97-24.53L419.97-24.53Q419.97-28.54 418.73-30.15L418.73-30.15L418.73-30.15Q417.49-31.75 414.27-31.75L414.27-31.75L414.27-31.75Q411.87-31.75 409.49-30.88L409.49-30.88L409.49-30.88Q407.12-30.00 403.91-27.52L403.91-27.52L403.91-5.40L410.48-2.85L409.02 0.07L388.65 0.07L388.65-2.19L395.15-7.30L395.15-27.96L388.65-31.75L388.65-34.02L401.13-40.15L403.54-30.66L413.91-38.91L413.91-38.91Q415.44-39.49 417.92-39.49L417.92-39.49L417.92-39.49Q422.89-39.49 425.81-36.46L425.81-36.46L425.81-36.46Q428.73-33.43 428.73-28.25L428.73-28.25L428.73-5.47L435.30-2.85ZM461.58-68.11L442.31 10.22L438.58 9.49L457.78-68.84L461.58-68.11ZM495.23-5.69L487.86 0.15L487.86 0.15Q486.18 0.73 483.77 0.73L483.77 0.73L483.77 0.73Q477.71 0.73 474.90-2.45L474.90-2.45L474.90-2.45Q472.09-5.62 472.09-12.26L472.09-12.26L472.09-33.58L464.21-33.58L464.21-36.57L478.08-52.71L480.85-52.71L480.85-36.57L493.99-36.57L493.99-33.58L480.85-33.58L480.85-11.39L480.85-11.39Q480.85-5.47 486.54-5.47L486.54-5.47L486.54-5.47Q488.08-5.47 489.50-6.13L489.50-6.13L489.50-6.13Q490.92-6.79 493.04-8.47L493.04-8.47L495.23-5.69ZM545.53-2.92L544.07 0L530.20 0L530.20-24.60L530.20-24.60Q530.20-28.62 528.96-30.22L528.96-30.22L528.96-30.22Q527.72-31.83 524.50-31.83L524.50-31.83L524.50-31.83Q522.10-31.83 519.72-30.95L519.72-30.95L519.72-30.95Q517.35-30.08 514.14-27.59L514.14-27.59L514.14-5.47L520.71-2.92L519.25 0L498.88 0L498.88-2.26L505.38-7.37L505.38-52.27L498.88-56.79L498.88-59.06L511.36-63.73L514.14-63.73L514.14-31.02L524.14-38.91L524.14-38.91Q525.67-39.49 528.15-39.49L528.15-39.49L528.15-39.49Q533.12-39.49 536.04-36.46L536.04-36.46L536.04-36.46Q538.96-33.43 538.96-28.25L538.96-28.25L538.96-5.47L545.53-2.92ZM589.18-10.07L576.26 0.15L576.26 0.15Q573.34 0.73 569.25 0.73L569.25 0.73L569.25 0.73Q564.44 0.73 560.60-1.79L560.60-1.79L560.60-1.79Q556.77-4.31 554.62-8.61L554.62-8.61L554.62-8.61Q552.46-12.92 552.46-18.10L552.46-18.10L552.46-18.10Q552.46-23.72 555.89-28.65L555.89-28.65L555.89-28.65Q559.33-33.58 564.47-36.54L564.47-36.54L564.47-36.54Q569.62-39.49 574.44-39.49L574.44-39.49L574.44-39.49Q581.37-39.49 585.20-34.02L585.20-34.02L585.20-34.02Q589.04-28.54 589.04-19.56L589.04-19.56L562.03-19.56L562.03-19.56Q562.46-13.36 565.42-9.42L565.42-9.42L565.42-9.42Q568.38-5.47 573.49-5.47L573.49-5.47L573.49-5.47Q578.23-5.47 586.99-12.85L586.99-12.85L589.18-10.07ZM570.20-33.36L570.20-33.36Q562.32-33.36 561.95-22.56L561.95-22.56L579.04-22.56L579.04-22.56Q578.38-26.50 577.69-28.58L577.69-28.58L577.69-28.58Q576.99-30.66 575.28-32.01L575.28-32.01L575.28-32.01Q573.56-33.36 570.20-33.36L570.20-33.36ZM627.95-35.33L627.95-35.33Q632.62-32.63 635.65-30.33L635.65-30.33L635.65-30.33Q638.68-28.03 640.68-25.08L640.68-25.08L640.68-25.08Q642.69-22.12 642.69-18.47L642.69-18.47L642.69-18.47Q642.69-14.53 639.41-9.96L639.41-9.96L639.41-9.96Q636.12-5.40 631.41-2.30L631.41-2.30L631.41-2.30Q626.70 0.80 622.84 0.80L622.84 0.80L622.84 0.80Q616.12 0.80 610.79-1.50L610.79-1.50L610.79-1.50Q605.46-3.80 602.47-7.77L602.47-7.77L602.47-7.77Q599.48-11.75 599.48-16.57L599.48-16.57L599.48-16.57Q599.48-20.22 602.65-23.91L602.65-23.91L602.65-23.91Q605.83-27.59 613.27-33.21L613.27-33.21L613.27-33.21Q608.60-36.43 605.97-39.78L605.97-39.78L605.97-39.78Q603.34-43.14 603.34-47.30L603.34-47.30L603.34-47.30Q603.34-50.81 606.41-54.82L606.41-54.82L606.41-54.82Q609.48-58.84 613.89-61.61L613.89-61.61L613.89-61.61Q618.31-64.39 622.03-64.39L622.03-64.39L622.03-64.39Q626.78-64.39 630.54-62.60L630.54-62.60L630.54-62.60Q634.30-60.81 636.38-57.78L636.38-57.78L636.38-57.78Q638.46-54.75 638.46-51.17L638.46-51.17L638.46-51.17Q638.17-47.96 635.98-44.53L635.98-44.53L635.98-44.53Q633.79-41.10 627.87-35.41L627.87-35.41L627.95-35.33ZM620.28-59.35L620.28-59.35Q617.07-59.35 614.88-56.90L614.88-56.90L614.88-56.90Q612.69-54.46 612.69-50.73L612.69-50.73L612.69-50.73Q612.69-46.87 615.75-43.87L615.75-43.87L615.75-43.87Q618.82-40.88 624.73-37.30L624.73-37.30L624.73-37.30Q627.95-41.24 628.82-43.25L628.82-43.25L628.82-43.25Q629.70-45.26 629.70-47.74L629.70-47.74L629.70-47.74Q629.70-52.71 627.03-55.99L627.03-55.99L627.03-55.99Q624.37-59.28 620.28-59.28L620.28-59.28L620.28-59.35ZM623.13-4.38L623.13-4.38Q626.12-4.38 628.46-5.88L628.46-5.88L628.46-5.88Q630.79-7.37 632.03-9.85L632.03-9.85L632.03-9.85Q633.27-12.34 633.27-15.18L633.27-15.18L633.27-15.18Q633.27-17.96 631.41-20.40L631.41-20.40L631.41-20.40Q629.55-22.85 626.78-24.78L626.78-24.78L626.78-24.78Q624.00-26.72 619.33-29.49L619.33-29.49L616.34-31.32L616.34-31.32Q611.81-27.52 610.39-25.22L610.39-25.22L610.39-25.22Q608.97-22.92 608.97-20.15L608.97-20.15L608.97-20.15Q608.97-16.06 610.94-12.41L610.94-12.41L610.94-12.41Q612.91-8.76 616.19-6.57L616.19-6.57L616.19-6.57Q619.48-4.38 623.20-4.38L623.20-4.38L623.13-4.38ZM710.73-38.76L710.73-36.50L694.45 0L688.90 0L681.31-18.61L671.89 0L666.34 0L654.96-27.81L648.17-31.75L648.17-34.02L660.65-40.15L663.42-29.13L672.33-7.45L679.48-22.85L677.44-27.81L670.65-31.75L670.65-34.02L683.13-40.15L685.91-29.13L694.59-8.03L703.35-28.47L693.21-35.84L694.67-38.76L710.73-38.76ZM738.25-39.49L738.25-39.49Q743.07-39.49 746.90-36.97L746.90-36.97L746.90-36.97Q750.73-34.46 752.89-30.15L752.89-30.15L752.89-30.15Q755.04-25.84 755.04-20.66L755.04-20.66L755.04-20.66Q755.04-15.04 751.61-10.11L751.61-10.11L751.61-10.11Q748.18-5.18 743.03-2.23L743.03-2.23L743.03-2.23Q737.88 0.73 733.07 0.73L733.07 0.73L733.07 0.73Q728.25 0.73 724.42-1.79L724.42-1.79L724.42-1.79Q720.58-4.31 718.43-8.61L718.43-8.61L718.43-8.61Q716.28-12.92 716.28-18.10L716.28-18.10L716.28-18.10Q716.28-23.72 719.71-28.65L719.71-28.65L719.71-28.65Q723.14-33.58 728.28-36.54L728.28-36.54L728.28-36.54Q733.43-39.49 738.25-39.49L738.25-39.49ZM734.01-33.36L734.01-33.36Q725.77-33.36 725.77-21.61L725.77-21.61L725.77-21.61Q725.77-14.67 728.76-10.04L728.76-10.04L728.76-10.04Q731.75-5.40 737.30-5.40L737.30-5.40L737.30-5.40Q745.55-5.40 745.55-17.23L745.55-17.23L745.55-17.23Q745.55-24.09 742.56-28.73L742.56-28.73L742.56-28.73Q739.56-33.36 734.01-33.36L734.01-33.36ZM787.23-39.49L787.23-39.49Q792.05-39.49 795.88-36.97L795.88-36.97L795.88-36.97Q799.71-34.46 801.87-30.15L801.87-30.15L801.87-30.15Q804.02-25.84 804.02-20.66L804.02-20.66L804.02-20.66Q804.02-15.04 800.59-10.11L800.59-10.11L800.59-10.11Q797.16-5.18 792.01-2.23L792.01-2.23L792.01-2.23Q786.87 0.73 782.05 0.73L782.05 0.73L782.05 0.73Q777.23 0.73 773.40-1.79L773.40-1.79L773.40-1.79Q769.57-4.31 767.41-8.61L767.41-8.61L767.41-8.61Q765.26-12.92 765.26-18.10L765.26-18.10L765.26-18.10Q765.26-23.72 768.69-28.65L768.69-28.65L768.69-28.65Q772.12-33.58 777.27-36.54L777.27-36.54L777.27-36.54Q782.41-39.49 787.23-39.49L787.23-39.49ZM783.00-33.36L783.00-33.36Q774.75-33.36 774.75-21.61L774.75-21.61L774.75-21.61Q774.75-14.67 777.74-10.04L777.74-10.04L777.74-10.04Q780.73-5.40 786.28-5.40L786.28-5.40L786.28-5.40Q794.53-5.40 794.53-17.23L794.53-17.23L794.53-17.23Q794.53-24.09 791.54-28.73L791.54-28.73L791.54-28.73Q788.55-33.36 783.00-33.36L783.00-33.36ZM858.70-2.92L857.24 0L843.37 0L843.37-5.26L836.58 0.15L836.58 0.15Q834.24 0.73 830.96 0.73L830.96 0.73L830.96 0.73Q826.14 0.73 822.31-1.79L822.31-1.79L822.31-1.79Q818.48-4.31 816.32-8.61L816.32-8.61L816.32-8.61Q814.17-12.92 814.17-18.10L814.17-18.10L814.17-18.10Q814.17-23.72 817.60-28.65L817.60-28.65L817.60-28.65Q821.03-33.58 826.18-36.54L826.18-36.54L826.18-36.54Q831.32-39.49 836.14-39.49L836.14-39.49L836.14-39.49Q840.16-39.49 843.44-37.23L843.44-37.23L843.44-52.27L836.94-56.79L836.94-59.06L849.43-63.73L852.20-63.73L852.20-5.47L858.70-2.92ZM834.68-5.47L834.68-5.47Q836.87-5.47 838.88-6.10L838.88-6.10L838.88-6.10Q840.89-6.72 843.37-8.47L843.37-8.47L843.37-25.11L843.37-25.11Q842.93-28.76 839.97-31.06L839.97-31.06L839.97-31.06Q837.02-33.36 831.91-33.36L831.91-33.36L831.91-33.36Q823.66-33.36 823.66-21.61L823.66-21.61L823.66-21.61Q823.66-14.75 826.51-10.11L826.51-10.11L826.51-10.11Q829.35-5.47 834.68-5.47L834.68-5.47ZM886.22-39.49L886.22-39.49Q889.21-39.49 893.19-38.65L893.19-38.65L893.19-38.65Q897.17-37.81 898.92-36.79L898.92-36.79L898.92-25.55L896.15-25.55L896.15-25.55Q893.30-29.20 889.61-31.28L889.61-31.28L889.61-31.28Q885.93-33.36 881.99-33.36L881.99-33.36L881.99-33.36Q878.63-33.36 876.91-30.37L876.91-30.37L876.91-30.37Q875.20-27.38 875.20-21.61L875.20-21.61L875.20-21.61Q875.20-14.75 878.19-10.11L878.19-10.11L878.19-10.11Q881.18-5.47 886.73-5.47L886.73-5.47L886.73-5.47Q890.89-5.47 898.56-11.46L898.56-11.46L900.75-8.69L889.50 0.15L889.50 0.15Q886.58 0.73 882.50 0.73L882.50 0.73L882.50 0.73Q877.68 0.73 873.85-1.79L873.85-1.79L873.85-1.79Q870.01-4.31 867.86-8.61L867.86-8.61L867.86-8.61Q865.71-12.92 865.71-18.10L865.71-18.10L865.71-18.10Q865.71-23.72 868.88-28.69L868.88-28.69L868.88-28.69Q872.06-33.65 876.88-36.57L876.88-36.57L876.88-36.57Q881.69-39.49 886.22-39.49L886.22-39.49ZM953.82-2.92L952.36 0L938.49 0L938.49-7.59L929.22 0.15L929.22 0.15Q927.68 0.73 925.20 0.73L925.20 0.73L925.20 0.73Q920.24 0.73 917.32-2.30L917.32-2.30L917.32-2.30Q914.40-5.33 914.40-10.51L914.40-10.51L914.40-27.96L907.90-31.75L907.90-34.02L920.38-40.15L923.16-40.15L923.16-14.16L923.16-14.16Q923.16-10.15 924.40-8.54L924.40-8.54L924.40-8.54Q925.64-6.93 928.85-6.93L928.85-6.93L928.85-6.93Q931.11-6.93 933.30-7.77L933.30-7.77L933.30-7.77Q935.49-8.61 938.49-11.10L938.49-11.10L938.49-27.96L931.99-31.75L931.99-34.02L944.47-40.15L947.25-40.15L947.25-5.47L953.82-2.92ZM988.57-5.69L981.19 0.15L981.19 0.15Q979.51 0.73 977.10 0.73L977.10 0.73L977.10 0.73Q971.05 0.73 968.24-2.45L968.24-2.45L968.24-2.45Q965.42-5.62 965.42-12.26L965.42-12.26L965.42-33.58L957.54-33.58L957.54-36.57L971.41-52.71L974.18-52.71L974.18-36.57L987.32-36.57L987.32-33.58L974.18-33.58L974.18-11.39L974.18-11.39Q974.18-5.47 979.88-5.47L979.88-5.47L979.88-5.47Q981.41-5.47 982.84-6.13L982.84-6.13L982.84-6.13Q984.26-6.79 986.38-8.47L986.38-8.47L988.57-5.69ZM1021.85-5.69L1014.48 0.15L1014.48 0.15Q1012.80 0.73 1010.39 0.73L1010.39 0.73L1010.39 0.73Q1004.33 0.73 1001.52-2.45L1001.52-2.45L1001.52-2.45Q998.71-5.62 998.71-12.26L998.71-12.26L998.71-33.58L990.83-33.58L990.83-36.57L1004.70-52.71L1007.47-52.71L1007.47-36.57L1020.61-36.57L1020.61-33.58L1007.47-33.58L1007.47-11.39L1007.47-11.39Q1007.47-5.47 1013.17-5.47L1013.17-5.47L1013.17-5.47Q1014.70-5.47 1016.12-6.13L1016.12-6.13L1016.12-6.13Q1017.55-6.79 1019.66-8.47L1019.66-8.47L1021.85-5.69ZM1064.05-10.07L1051.13 0.15L1051.13 0.15Q1048.21 0.73 1044.12 0.73L1044.12 0.73L1044.12 0.73Q1039.30 0.73 1035.47-1.79L1035.47-1.79L1035.47-1.79Q1031.64-4.31 1029.48-8.61L1029.48-8.61L1029.48-8.61Q1027.33-12.92 1027.33-18.10L1027.33-18.10L1027.33-18.10Q1027.33-23.72 1030.76-28.65L1030.76-28.65L1030.76-28.65Q1034.19-33.58 1039.34-36.54L1039.34-36.54L1039.34-36.54Q1044.48-39.49 1049.30-39.49L1049.30-39.49L1049.30-39.49Q1056.24-39.49 1060.07-34.02L1060.07-34.02L1060.07-34.02Q1063.90-28.54 1063.90-19.56L1063.90-19.56L1036.89-19.56L1036.89-19.56Q1037.33-13.36 1040.29-9.42L1040.29-9.42L1040.29-9.42Q1043.24-5.47 1048.35-5.47L1048.35-5.47L1048.35-5.47Q1053.10-5.47 1061.86-12.85L1061.86-12.85L1064.05-10.07ZM1045.07-33.36L1045.07-33.36Q1037.18-33.36 1036.82-22.56L1036.82-22.56L1053.90-22.56L1053.90-22.56Q1053.24-26.50 1052.55-28.58L1052.55-28.58L1052.55-28.58Q1051.86-30.66 1050.14-32.01L1050.14-32.01L1050.14-32.01Q1048.43-33.36 1045.07-33.36L1045.07-33.36ZM1099.53-39.42L1099.53-39.42Q1101.93-39.42 1103.76-38.11L1103.76-38.11L1103.76-38.11Q1105.58-36.79 1106.61-34.46L1106.61-34.46L1101.79-28.40L1099.01-28.40L1099.01-28.40Q1098.72-30.22 1097.96-30.99L1097.96-30.99L1097.96-30.99Q1097.19-31.75 1095.88-31.75L1095.88-31.75L1095.88-31.75Q1094.27-31.75 1092.48-30.92L1092.48-30.92L1092.48-30.92Q1090.69-30.08 1088.43-27.74L1088.43-27.74L1088.43-5.99L1098.65-2.85L1097.19 0.07L1073.17 0.07L1073.17-2.19L1079.67-7.30L1079.67-27.96L1073.17-31.75L1073.17-34.02L1085.66-40.15L1087.92-31.17L1095.51-38.91L1095.51-38.91Q1097.04-39.49 1099.53-39.49L1099.53-39.49L1099.53-39.42Z" fill="#906e04"></path></g></g><style>text {
  font-size: 64px;
  font-family: Arial Black;
  dominant-baseline: central;
  text-anchor: middle;
}</style></svg>